<svg xmlns="http://www.w3.org/2000/svg" viewBox="0 0 400 400"><defs><style>.cls-1{fill:#fff;}</style></defs><g id="Layer_2" data-name="Layer 2"><g id="Layer_1-2" data-name="Layer 1"><path class="cls-1" d="M0,0H400V400H0ZM64.25,311l1.53-.14a6.63,6.63,0,0,0,.38-1.4c.71-13.18,5-19.29,17.56-22.5a114.27,114.27,0,0,1,23.11-3.44c29.62-1.34,58.81,2.88,87.78,8.37,20.27,3.83,36.87-6.56,41.55-26.73,5.29-22.84,10.89-45.61,16.26-68.43.66-2.8,2.11-4.32,4.83-3.49,4.55,1.39,9,3.09,13.46,4.86,5.41,2.16,10.15,1.51,13.3-2.08,6.55-7.46,3.74-22.55-5.21-26.81-5.22-2.49-10.71-4.39-15.72-6.41,4.33-3.15,5.1-3.27,10.14-.92,3,1.4,6,2.85,9,4.3,7.1,3.44,10.62,9.05,9.78,16.87-1.11,10.41-2.52,20.8-4.12,31.15-1.28,8.24-7.71,11.81-15.49,8.62-6.16-2.51-13-4.19-16.3-11.42C253.18,221.78,251,232,248.35,242c-1,3.86-.26,6.77,2.45,9.52,15.26,15.41,33.74,22.23,55,18.15,12.64-2.42,24.79-7.44,37.06-11.61a7,7,0,0,0,4-4.57c.59-4,.19-8.07.19-12.49-1.77.29-2.39.43-3,.5-4.33.49-8.59,3.07-13-.06-5.29-3.77-11.46-6.64-15.87-11.22-3.11-3.23-5.09-8.57-5.47-13.15s5-4.87,8.46-6.33,5.2,0,6.42,3.18c2.27,5.91,4.76,11.73,7.12,17.59,2.78,6.89,2.79,7,10.11,5.65,14.88-2.79,12.42-3.5,8.49-13.93-2.74-7.3-3-15.85-10.16-21.09-.64-.47-.59-1.85-.87-2.79-3.36-11.14-6.1-22.51-10.19-33.36-18.25-48.32-54-74-104.9-78-42.05-3.25-76.65,13.18-104.7,44.13a31.57,31.57,0,0,0-2.57,4h15.22c-12.65,2.84-25,6.13-35.56,14.31,20.27-4,40.33-3.39,60.39.73,17.85,3.67,49.88,15.82,56.2,21.66C188,163.29,162.68,156,136,154.29c-19.46-1.26-38.62-.33-57,6.89-16.55,6.51-25.55,20.32-24.2,35.75.58,6.54.1,13.19-.28,19.77-.14,2.37-.78,5.21-2.26,6.9-6.37,7.27-6.88,15.14-3.48,23.72,3.23,8.19,9.11,14.34,15.88,19.53,3.16,2.41,3.9,4.6,3,8.3a194.78,194.78,0,0,0-4.28,22C62.87,301.67,63.92,306.36,64.25,311Z"/><path d="M64.25,311c-.33-4.6-1.38-9.29-.85-13.8a194.78,194.78,0,0,1,4.28-22c.88-3.7.14-5.89-3-8.3-6.77-5.19-12.65-11.34-15.88-19.53-3.4-8.58-2.89-16.45,3.48-23.72,1.48-1.69,2.12-4.53,2.26-6.9.38-6.58.86-13.23.28-19.77-1.35-15.43,7.65-29.24,24.2-35.75,18.39-7.22,37.55-8.15,57-6.89,26.67,1.72,52,9,77.09,18.59-6.32-5.84-38.35-18-56.2-21.66-20.06-4.12-40.12-4.71-60.39-.73,10.54-8.18,22.91-11.47,35.56-14.31H116.85a31.57,31.57,0,0,1,2.57-4c28.05-30.95,62.65-47.38,104.7-44.13C275,92,310.77,117.68,329,166c4.09,10.85,6.83,22.22,10.19,33.36.28.94.23,2.32.87,2.79,7.14,5.24,7.42,13.79,10.16,21.09,3.93,10.43,6.39,11.14-8.49,13.93-7.32,1.38-7.33,1.24-10.11-5.65-2.36-5.86-4.85-11.68-7.12-17.59-1.22-3.18-2.93-4.66-6.42-3.18s-8.85,1.78-8.46,6.33,2.36,9.92,5.47,13.15c4.41,4.58,10.58,7.45,15.87,11.22,4.4,3.13,8.66.55,13,.06.63-.07,1.25-.21,3-.5,0,4.42.4,8.53-.19,12.49a7,7,0,0,1-4,4.57c-12.27,4.17-24.42,9.19-37.06,11.61-21.24,4.08-39.72-2.74-55-18.15-2.71-2.75-3.45-5.66-2.45-9.52,2.61-10.06,4.83-20.23,7.75-30.65,3.29,7.23,10.14,8.91,16.3,11.42,7.78,3.19,14.21-.38,15.49-8.62,1.6-10.35,3-20.74,4.12-31.15.84-7.82-2.68-13.43-9.78-16.87-3-1.45-6-2.9-9-4.3-5-2.35-5.81-2.23-10.14.92,5,2,10.5,3.92,15.72,6.41,8.95,4.26,11.76,19.35,5.21,26.81-3.15,3.59-7.89,4.24-13.3,2.08-4.43-1.77-8.91-3.47-13.46-4.86-2.72-.83-4.17.69-4.83,3.49-5.37,22.82-11,45.59-16.26,68.43-4.68,20.17-21.28,30.56-41.55,26.73-29-5.49-58.16-9.71-87.78-8.37a114.27,114.27,0,0,0-23.11,3.44c-12.53,3.21-16.85,9.32-17.56,22.5a6.63,6.63,0,0,1-.38,1.4Zm6-130.52,1.55,1.18c-10.69,9-9.11,21.67-11,33.56,6.26-2.25,11.87-4.76,17.74-6.28,22.2-5.78,44.81-5.55,67.41-3.41,4.79.45,6.52-.64,7.21-5.38,1.25-8.7,3.16-17.3,4.8-25.94,1-5.4.36-6.63-5.15-6.81-15.76-.51-31.54-1.26-47.29-.88-11.49.28-22.77,2.85-33,8.68-6.88,3.94-11.89,9.33-13.57,17.33Zm133.27,53.81c-6.56-2.32-15.26-5.47-24-8.47-31.15-10.68-62.85-14-95.25-6.58-9.31,2.15-18.22,5.38-25.41,12C52.65,237,51,244.16,54.28,251.13c3.18,6.73,8.27,11.85,14.24,16.2.38-.49.7-.73.76-1a20,20,0,0,0,.56-3.42c.49-17,10.89-25.52,25.93-29.94a130.21,130.21,0,0,1,46-4.69C163.06,229.77,184.32,232.34,203.51,234.25Zm77.46-52c0-5.26-3.29-9.14-7.8-9.08-3.69.06-6.34,3.15-6.33,7.41,0,5.21,3.43,9.2,7.88,9.19C278.33,189.75,280.94,186.62,281,182.24Zm-92.76,3.32c1.33-2.69,2.75-4.25,2.42-5.2-.54-1.54-2.22-2.69-3.43-4-.93,1.18-2.73,2.49-2.59,3.52C184.83,181.47,186.39,182.86,188.21,185.56Zm-1.93,24.49c-1.87-1.64-3-3.19-4.35-3.54-.67-.17-2.91,2.2-2.7,2.92.46,1.59,2,2.87,3.13,4.27Z"/><path class="cls-1" d="M70.24,180.44,59,192.49c1.68-8,6.69-13.39,13.57-17.33,10.21-5.83,21.49-8.4,33-8.68,15.75-.38,31.53.37,47.29.88,5.51.18,6.17,1.41,5.15,6.81-1.64,8.64-3.55,17.24-4.8,25.94-.69,4.74-2.42,5.83-7.21,5.38-22.6-2.14-45.21-2.37-67.41,3.41-5.87,1.52-11.48,4-17.74,6.28,1.85-11.89.27-24.56,11-33.56Z"/><path class="cls-1" d="M203.51,234.25c-19.19-1.91-40.45-4.48-61.78-6a130.21,130.21,0,0,0-46,4.69c-15,4.42-25.44,12.89-25.93,29.94a20,20,0,0,1-.56,3.42c-.06.29-.38.53-.76,1-6-4.35-11.06-9.47-14.24-16.2-3.3-7-1.63-14.16,4.55-19.89,7.19-6.66,16.1-9.89,25.41-12,32.4-7.46,64.1-4.1,95.25,6.58C188.25,228.78,197,231.93,203.51,234.25Z"/><path class="cls-1" d="M281,182.24c0,4.38-2.64,7.51-6.25,7.52-4.45,0-7.86-4-7.88-9.19,0-4.26,2.64-7.35,6.33-7.41C277.68,173.1,281,177,281,182.24Zm-5.1-6.68-1.85,0c-1,1.62-3,3.41-2.78,4.82.3,1.82,2.41,3.33,3.75,5,1.38-1.28,3.95-2.64,3.88-3.83C278.74,179.47,277,177.54,275.87,175.56Z"/><path class="cls-1" d="M188.21,185.56c-1.82-2.7-3.38-4.09-3.6-5.68-.14-1,1.66-2.34,2.59-3.52,1.21,1.31,2.89,2.46,3.43,4C191,181.31,189.54,182.87,188.21,185.56Z"/><path class="cls-1" d="M186.28,210.05l-3.92,3.65c-1.11-1.4-2.67-2.68-3.13-4.27-.21-.72,2-3.09,2.7-2.92C183.32,206.86,184.41,208.41,186.28,210.05Z"/><path d="M275.87,175.56c1.09,2,2.87,3.91,3,5.95.07,1.19-2.5,2.55-3.88,3.83-1.34-1.65-3.45-3.16-3.75-5-.24-1.41,1.77-3.2,2.78-4.82Z"/></g></g></svg>